# xmcd
#
# Track frame offsets: 
#        150
#        20025
#        42675
#        62550
#
# Disc length: 1133 seconds
#
# Revision: 4
# Processed by: cddbd v1.5.2PL0 Copyright (c) Steve Scherf et al.
# Submitted via: ExactAudioCopy v1.0b3
#
DISCID=34046b04
DTITLE=TYPE-MOON - hollow
DYEAR=2005
DGENRE=Soundtrack
TTITLE0=hollow
TTITLE1=??????
TTITLE2=hollow (instrumental)
TTITLE3=?????? (instrumental)
EXTD=YEAR: 2005
EXTT0=
EXTT1=
EXTT2=
EXTT3=
PLAYORDER=
